<svg version="1.1" id="Layer_1" xmlns="http://www.w3.org/2000/svg" x="0" y="0" viewBox="0 0 222.1 24" xml:space="preserve"><style>.st1{fill:#4285f4}.st2{fill:#ea4335}</style><path d="M81.9 18.3V1.8h2.6l8 12.8h.1l-.1-3.2V1.8h2.1v16.5h-2.2L84 4.8h-.1L84 8v10.2h-2.1zm20.7.3c-1.6.1-3.1-.6-4.2-1.7-1.1-1.2-1.7-2.7-1.6-4.3 0-1.6.5-3.1 1.5-4.3 1-1.2 2.5-1.8 4-1.8 1.5-.1 3 .5 4 1.6 1.1 1.2 1.6 2.8 1.5 4.4v.5H99c0 1 .4 2 1.1 2.7.7.6 1.5 1 2.4 1 1.3.1 2.6-.7 3.1-1.9l1.9.8c-.4.9-1 1.7-1.8 2.2-.9.6-2 .9-3.1.8zm3-7.3c-.1-.7-.4-1.3-.9-1.8-.7-.6-1.5-.9-2.4-.9-.7 0-1.4.3-2 .7-.6.5-1 1.2-1.2 2h6.5zm16.1 7h-2.2l-2.8-8.6-2.8 8.6h-2.1L108.2 7h2.2l2.5 8.5 2.8-8.5h2.2l2.8 8.5 2.5-8.5h2.2l-3.7 11.3zm9 .3c-1.1 0-2.2-.3-3.1-.9-.8-.6-1.4-1.4-1.8-2.3l1.9-.8c.4 1.3 1.7 2.2 3.1 2.1.6 0 1.1-.1 1.6-.4.4-.2.6-.7.6-1.2 0-.7-.5-1.2-1.5-1.5l-2.3-.6c-.7-.2-1.4-.5-2-1-.7-.5-1-1.3-1-2.1 0-1 .5-1.9 1.3-2.4 1.7-1.1 4-1.2 5.8-.3.8.4 1.4 1.1 1.7 2l-1.8.8c-.4-1-1.5-1.6-2.6-1.5-.6 0-1.1.1-1.6.4-.4.2-.6.6-.6 1.1 0 .6.5 1.1 1.5 1.3l2.2.5c.9.2 1.7.6 2.4 1.3.5.6.8 1.3.8 2 0 1-.5 1.9-1.2 2.5-1.1.7-2.3 1.1-3.4 1zm11.7-.3V1.8h2.1v16.5h-2.1zm7-11.3v1.6h.1c.3-.6.9-1.1 1.4-1.4.6-.4 1.4-.6 2.1-.6 1.2-.1 2.4.4 3.2 1.3.8 1 1.2 2.2 1.1 3.4v6.9h-2.1v-6.6c0-2.1-.9-3.1-2.8-3.1-.8 0-1.6.4-2.1 1-.6.7-.8 1.5-.8 2.4v6.2h-2.1V7h2zm12.5-2.8c-.6.6-1.5.6-2.1 0-.3-.3-.4-.7-.4-1 0-.4.1-.8.4-1.1.6-.6 1.5-.6 2.1 0 .3.3.4.7.4 1 0 .4-.2.8-.4 1.1zm0 14.1h-2.1V7h2.1v11.3zm7.2.2c-1.8.2-3.4-1.1-3.6-2.9V8.9h-2V7h2V3.6h2.1V7h2.8v1.9h-2.8v5.8c0 1.2.5 1.8 1.5 1.8.3 0 .7 0 1-.2l.7 1.8c-.6.3-1.2.4-1.7.4zm5.2-14.3c-.6.6-1.5.6-2.1 0-.6-.6-.6-1.5 0-2.1s1.5-.6 2.1 0c.3.3.4.7.4 1.1 0 .3-.1.7-.4 1zm0 14.1h-2.1V7h2.1v11.3zm6 .3c-1.1 0-2.2-.3-3-1-.8-.7-1.2-1.7-1.2-2.7 0-1.1.5-2.2 1.4-2.9 1-.7 2.3-1.1 3.5-1 1.1 0 2.1.2 3.1.7v-.3c0-.8-.3-1.5-.9-2-.6-.5-1.3-.8-2.1-.8-.6 0-1.2.1-1.7.4-.5.3-.8.7-1 1.2l-2-.9c.3-.8.9-1.4 1.5-1.9.9-.6 1.9-.9 3-.9 1.3 0 2.6.4 3.6 1.3s1.5 2.2 1.4 3.6v6.8h-2v-1.6h.1c-.8 1.4-2.2 2.1-3.7 2zm.4-1.9c.9 0 1.7-.4 2.4-1s1.1-1.4 1.1-2.3c-.8-.5-1.7-.8-2.7-.7-.8-.1-1.7.2-2.3.7-.5.4-.8 1-.8 1.6 0 .5.3 1 .7 1.3.4.2 1 .4 1.6.4zm12.3 1.8c-1.8.2-3.4-1.1-3.6-2.9V8.9h-2V7h2V3.6h2.1V7h2.8v1.9h-2.8v5.8c0 1.2.5 1.8 1.5 1.8.3 0 .7 0 1-.2l.7 1.8c-.5.3-1.1.4-1.7.4zm5.2-14.3c-.6.6-1.5.6-2.1 0-.3-.3-.4-.7-.4-1.1 0-.4.1-.8.4-1.1.6-.6 1.5-.6 2.1 0 .3.3.4.7.4 1.1.1.4-.1.8-.4 1.1zm0 14.1h-2.1V7h2.1v11.3zm5.9 0L199.6 7h2.3l3.4 8.7 3.4-8.7h2.3l-4.6 11.3h-2.3zm12.7.3c-1.6.1-3.1-.6-4.1-1.7-1.1-1.2-1.7-2.7-1.6-4.3 0-1.6.5-3.1 1.6-4.3 1-1.2 2.5-1.8 4-1.8 1.5-.1 3 .5 4 1.6 1.1 1.2 1.6 2.8 1.5 4.4v.5h-8.9c0 1 .4 2 1.1 2.7.7.6 1.5 1 2.4 1 1.3.1 2.6-.7 3.1-1.9l1.9.8c-.4.9-1 1.7-1.8 2.2-1.1.6-2.2.9-3.2.8zm3-7.3c-.1-.7-.4-1.3-.9-1.8-.6-.6-1.5-.9-2.4-.9-.7 0-1.4.3-2 .7-.6.5-1 1.2-1.2 2h6.5z" fill="#5f6368"/><path class="st1" d="M9.3 18.6C4.2 18.6 0 14.5 0 9.3S4.2 0 9.3 0c2.4 0 4.7.9 6.4 2.6l-1.8 1.8C12.7 3.2 11 2.5 9.3 2.6c-3.7.1-6.7 3.3-6.5 7 .1 3.5 3 6.4 6.5 6.5 1.8.1 3.5-.6 4.7-1.9.8-.9 1.3-2 1.4-3.2H9.3V8.5h8.6c.1.5.1 1 .1 1.6.1 2.2-.7 4.4-2.2 6-1.7 1.7-4 2.7-6.5 2.5z"/><path class="st2" d="M31.3 12.6c0 3.3-2.7 5.9-6 5.8-3.3 0-5.9-2.7-5.8-6 0-3.2 2.7-5.8 5.9-5.8s5.9 2.6 5.9 5.8v.2zm-2.6 0c.2-1.8-1.2-3.5-3-3.6-1.8-.2-3.5 1.2-3.6 3v.6c-.2 1.8 1.2 3.5 3 3.6 1.8.2 3.5-1.2 3.6-3v-.6z"/><path d="M44.5 12.6c0 3.3-2.7 5.9-6 5.8-3.3 0-5.9-2.7-5.8-6 0-3.2 2.7-5.8 5.9-5.8s5.9 2.6 5.9 5.8v.2zm-2.6 0c.2-1.8-1.2-3.5-3-3.6-1.8-.2-3.5 1.2-3.6 3v.6c-.2 1.8 1.2 3.5 3 3.6 1.8.2 3.5-1.2 3.6-3 .1-.1.1-.3 0-.6z" fill="#fbbc04"/><path class="st1" d="M57.5 7v10.8c0 4.4-2.6 6.2-5.7 6.2-2.3 0-4.4-1.4-5.3-3.5l2.3-1c.5 1.2 1.7 2.1 3 2.1 2 0 3.2-1.2 3.2-3.5v-.9h-.1c-.8.9-2 1.4-3.2 1.4-3.3 0-6-2.7-6-6s2.7-6 6-6c1.2 0 2.3.5 3.2 1.3h.1v-1l2.5.1zm-2.4 5.7c.2-1.9-1.2-3.5-3.1-3.7h-.1c-1.9.1-3.4 1.7-3.3 3.6-.1 1.9 1.4 3.5 3.3 3.6h.1c1.9-.1 3.3-1.6 3.2-3.5h-.1z"/><path d="M62.1.6v17.6h-2.6V.6h2.6z" fill="#34a853"/><path class="st2" d="M72.4 14.6l2 1.4c-1.1 1.7-3 2.7-5 2.7-3.2 0-5.8-2.5-5.9-5.7v-.3c0-3.6 2.5-6 5.6-6 2.3.1 4.4 1.6 5.1 3.8l.3.7-8 3.3c.5 1.1 1.7 1.9 2.9 1.8 1.3 0 2.4-.6 3-1.7zm-6.2-2.1l5.4-2.2c-.4-.8-1.3-1.3-2.2-1.3-1.9 0-3.3 1.6-3.2 3.5-.1-.1-.1-.1 0 0z"/></svg>